:SAMPLES-PER-SECOND 30
:FULLY-SPECIFIED
:DEGREES
366
root  -3.86012 40.8867 -0.299809 -10.1019 -83.5494 9.58421
RightUpLeg  7.58867 -2.87502 -2.60471
RightLeg  -3.06639 -25.1347 1.38836
RightFoot  -2.01991 -0.325915 3.81567
RightToes  -3.10096e-008 1.75238e-005 3.56266e-009
Spine  -10.2174 0.83127 0.658275
Spine1  12.9341 1.69755 -2.90326
HEad  -25.0361 5.33428 -10.4437
LeftShoulder1  4.42182 -9.89013 -26.9239
LeftArm  11.5466 -9.95376 -42.3609
LeftForeArm  141.684 -61.1942 -159.385
LeftHand  1.34498 -11.3223 -8.86856
RightShoulder  4.39156 9.59006 27.5387
RightArm  0.740814 27.3562 34.1435
RightForeArm  73.4572 74.0704 130.429
RightHand  0.946415 5.14925 10.0744
LeftUpLeg  4.19139 0.887086 1.68268
LeftLeg  -2.388 5.95852 -0.776465
LeftFoot  -0.627984 0.23636 -2.53979
LeftToes  4.7633e-008 1.48299e-008 1.30754e-009
367
root  -3.89548 40.8795 -0.318382 -10.4634 -83.8106 9.80849
RightUpLeg  7.73417 -2.89244 -2.58905
RightLeg  -2.98515 -24.847 1.35388
RightFoot  -2.14817 -0.325494 3.84541
RightToes  -3.10096e-008 1.75238e-005 3.56266e-009
Spine  -11.0221 1.05094 -0.275762
Spine1  14.8046 1.71369 -1.62673
HEad  -27.3607 4.73186 -11.1199
LeftShoulder1  4.54721 -9.92948 -27.7867
LeftArm  5.74661 -8.72341 -41.2107
LeftForeArm  143.735 -59.2893 -160.976
LeftHand  1.52793 -11.6605 -9.91521
RightShoulder  4.36702 9.64337 27.2052
RightArm  -2.09153 25.3855 31.8254
RightForeArm  82.3681 71.7708 138.654
RightHand  0.920176 4.71497 10.2335
LeftUpLeg  4.39255 0.96941 1.74485
LeftLeg  -2.3075 6.13076 -0.776017
LeftFoot  -0.740777 0.233558 -2.49143
LeftToes  4.7633e-008 1.48299e-008 1.30754e-009
368
root  -3.90584 40.8742 -0.33563 -9.54793 -83.8835 8.62212
RightUpLeg  8.07067 -2.88687 -2.45669
RightLeg  -3.06627 -24.7884 1.44695
RightFoot  -2.17928 -0.320981 3.81055
RightToes  -3.10096e-008 1.75238e-005 3.56266e-009
Spine  -10.6694 1.21296 -0.282855
Spine1  14.8034 1.86801 -1.60569
HEad  -27.2878 4.30008 -10.9473
LeftShoulder1  4.59931 -9.97622 -28.0663
LeftArm  -3.95653 -9.73466 -40.047
LeftForeArm  140.684 -58.7206 -161.116
LeftHand  1.80095 -11.4409 -11.9019
RightShoulder  4.36367 9.61184 27.2602
RightArm  -6.76462 23.8857 29.0191
RightForeArm  85.1547 70.249 142.519
RightHand  0.946638 4.77509 10.4747
LeftUpLeg  4.51565 1.16096 1.95808
LeftLeg  -1.91789 5.91431 -0.734229
LeftFoot  -0.963245 0.237971 -2.55583
LeftToes  4.7633e-008 1.48299e-008 1.30754e-009
369
root  -3.95812 40.8675 -0.335097 -10.0567 -84.2268 8.85371
RightUpLeg  8.32977 -2.94903 -2.48844
RightLeg  -2.85871 -24.3562 1.36681
RightFoot  -2.32644 -0.316133 3.77072
RightToes  -3.10096e-008 1.75238e-005 3.56266e-009
Spine  -10.6542 1.42527 -0.270553
Spine1  14.971 2.09312 -1.61162
HEad  -26.5696 3.95569 -10.9848
LeftShoulder1  4.38939 -9.48831 -27.7172
LeftArm  -16.7254 -13.3748 -38.6809
LeftForeArm  136.949 -60.0916 -159.82
LeftHand  1.76798 -10.9135 -12.0677
RightShoulder  4.17573 9.32697 26.5108
RightArm  -14.1003 23.5286 26.289
RightForeArm  84.367 69.8311 143.34
RightHand  0.97329 4.42805 11.1721
LeftUpLeg  4.94318 1.22552 1.98128
LeftLeg  -1.90611 6.18644 -0.704261
LeftFoot  -1.10233 0.236525 -2.53013
LeftToes  4.7633e-008 1.48299e-008 1.30754e-009
370
root  -4.00144 40.8686 -0.338566 -9.64574 -84.253 8.46426
RightUpLeg  8.4002 -2.95662 -2.45551
RightLeg  -2.92879 -24.3268 1.43322
RightFoot  -2.30473 -0.315495 3.77818
RightToes  -3.10096e-008 1.75238e-005 3.56266e-009
Spine  -10.1614 1.56216 -0.185778
Spine1  13.8098 2.29766 -1.9238
HEad  -25.4944 4.07632 -10.2385
LeftShoulder1  4.05218 -9.01317 -26.2606
LeftArm  -30.5379 -18.0075 -35.9606
LeftForeArm  129.528 -64.0427 -155.622
LeftHand  1.39743 -9.6488 -10.3228
RightShoulder  3.96038 8.91305 25.8389
RightArm  -24.1063 23.1537 22.3101
RightForeArm  78.5172 70.5357 141.396
RightHand  0.983575 4.38505 11.3426
LeftUpLeg  5.03289 1.29063 2.05462
LeftLeg  -1.99227 6.13621 -0.734826
LeftFoot  -1.08919 0.22525 -2.35311
LeftToes  4.7633e-008 1.48299e-008 1.30754e-009
371
root  -4.04054 40.8741 -0.337109 -9.20059 -84.1802 8.23772
RightUpLeg  8.34684 -2.88678 -2.40425
RightLeg  -3.18864 -24.4672 1.52982
RightFoot  -2.21181 -0.316837 3.77999
RightToes  -3.10096e-008 1.75238e-005 3.56266e-009
Spine  -9.44797 1.5566 -0.297366
Spine1  11.8644 2.26085 -1.94535
HEad  -23.6599 4.27523 -9.85471
LeftShoulder1  3.69545 -8.51472 -24.5645
LeftArm  -43.6355 -22.766 -32.2527
LeftForeArm  113.683 -70.606 -144.638
LeftHand  1.03715 -7.75043 -8.73465
RightShoulder  3.57918 8.22566 24.3698
RightArm  -34.8169 23.5597 18.1427
RightForeArm  63.5053 73.0912 133.03
RightHand  0.883382 4.13215 10.4738
LeftUpLeg  4.90129 1.31852 2.0981
LeftLeg  -2.11576 6.00863 -0.790367
LeftFoot  -0.96714 0.221235 -2.29104
LeftToes  4.7633e-008 1.48299e-008 1.30754e-009
372
root  -4.07433 40.8914 -0.326497 -8.27887 -84.0173 7.81319
RightUpLeg  8.05412 -2.77694 -2.34468
RightLeg  -3.61042 -24.7597 1.72932
RightFoot  -1.9757 -0.324207 3.79051
RightToes  -3.10096e-008 1.75238e-005 3.56266e-009
Spine  -9.15556 1.43346 -0.668012
Spine1  10.3126 2.02892 -1.59646
HEad  -22.0017 3.97715 -9.43649
LeftShoulder1  3.29115 -7.89974 -22.5672
LeftArm  -54.6326 -26.0729 -27.2335
LeftForeArm  78.8208 -76.8847 -116.736
LeftHand  0.623531 -5.49398 -6.32311
RightShoulder  3.00055 7.23887 21.6751
RightArm  -45.1442 24.3141 14.9158
RightForeArm  34.86 76.6035 110.684
RightHand  0.663727 4.04406 7.85411
LeftUpLeg  4.35398 1.29104 2.14559
LeftLeg  -2.06726 5.79603 -0.818411
LeftFoot  -0.793422 0.228898 -2.41313
LeftToes  4.7633e-008 1.48299e-008 1.30754e-009
373
root  -4.10952 40.9001 -0.289316 -8.11 -83.9524 8.13197
RightUpLeg  7.59809 -2.7548 -2.40449
RightLeg  -3.65264 -24.8892 1.73325
RightFoot  -1.81891 -0.342516 3.96122
RightToes  -3.10096e-008 1.75238e-005 3.56266e-009
Spine  -8.71111 1.32544 -0.549276
Spine1  8.67015 1.93702 -1.80571
HEad  -20.3201 3.80473 -8.69816
LeftShoulder1  2.86781 -7.25227 -20.2426
LeftArm  -63.7848 -27.6502 -22.1449
LeftForeArm  20.3701 -76.7647 -64.0004
LeftHand  0.360064 -3.64777 -4.41229
RightShoulder  2.55734 6.45645 19.2182
RightArm  -54.4581 24.7912 11.5986
RightForeArm  -10.3062 76.6628 70.4868
RightHand  0.318353 3.06454 4.14258
LeftUpLeg  4.10073 1.08183 1.97042
LeftLeg  -2.55443 6.07586 -0.84182
LeftFoot  -0.580121 0.219803 -2.27763
LeftToes  4.7633e-008 1.48299e-008 1.30754e-009
